/* XPM */
static char * font2_xpm[] = {
"544 14 3 1",
" 	g None",
".	g #000000",
"+	g #FFFFFF",
"        ...                  ...           ....         ...       ...       ... ...      ....                                                             ...                                                     ....  ......   ...... ......  ................ ...... ...  ..........    ........  ......     ...  ......  ... ...... .......  ...... .......  ...... ...........  ......  ...... ... ...  ...... ... ........          ....    ...    ...... ........    ... ........  ..... ........ ......  ......                                         ",
"        . +                  . +          ..  ..        . +       . +       . + . +      .  +                                                             . +                                                    ..  .. .    .. ..    ...    .. .      +.      +..    ... +  . +.     +    .   +. + .. +. +     . ++.. +. +  . +..    ...     ....    ...     ....    ...      +. +  . +. +  . +. + . + . +  . +. + . + .      +         ..  ..  .. +   ..    ...      +   .. + .      + ..   + .      +..    ....    ..                       ......           ",
"        . +                  . +          . ++ +        . +       . +       . + . +      ++ +                                                             . +                                                   .. ++ ... +++ ... +++. +. +++ ... ++++++. ++++++. +++. +. +  . +... +++    +. ++. +.. ++. +     .  +.  +. ++ . +. ++++ +. ++++ +. ++++ +. ++++ +. +++. +++. ++++. +  . +. +  . +. + . + . ++.. +. + . + +++++. +        .. ++ ....  +   . +++. ++++++. +  ..  + . ++++++.. ++++ +++++. +. ++++ +. ++++ +                       . +. +     ...   ",
" ...... . +....  ......  ..... + ......   . +.++ ........ +....  ....      .... . + ...   . +   ......  .......  ...... .......  ..............  ...... ... ... ...  ...... ... ... ... ...  ......  ............ +++. +. + ++ +. +  . +. + +. +. +     . +     . +  . +. +  . +  . +       . + . +. ++ . +     .  +.  +.  + . +. +  . +. +  . +. +  . +. +  . +. +  . +  . +   . +  . +. +  . +. + . + .. +. ++. ++. +    .. ++        . ++++ +. . +   . +  . +   .. ++  . . + . ..... . ++        . ++. ++.. +. +  . +                      .. .. ..   .. ..  ",
"..    ... +   ....    ....   . +..    ..... +.+ ..   . +. +   .. .  +      .  + . +.. +   . +   .  . .. . .   ....    ... .   ....   . +. .   ....    ...     + . +  . +. + . + . + . + . +  . +. +  . +.      +. +  . +. ... ++. +  +++. +  . +. ....  . ....  . +  +++. .... +  . +       . + . . ++  . +     . +  . +.  ++. +. +  . +. +  . +. +  . +. +  . +. ...+++  . +   . +  . +. ++.. +. + . +  . .. + .. + ++    . ++         . +  . +++. +   +++ .. +  .. ++  .. . + .     ... +....    .. + ++ +. ++. + .. +                      .      +   .   +  ",
". ++++ +.  +++ +. ++++ +. +++  +. ++++ +.     + . +++ ++.  +++ + ++ +      ++ + . +. ++   . +   . + + + .  ++. +. ++++ +.  +++ +. +++  +.  ++. +. ..++ +++. +++ . +  . +. + . + . +.. + . ++.. +. +  . ++++++ ++. .... +.    ++ . +     . +  . +.    +  .    +  . +......      +  . +       . + .  ++   . +     . +  . +. . +. +. +  . +. .... +. +  . +. .... +++  ...   . +   . +  . +.. +. ++. + . +  ..  ++  . + +    .. +          . +  . +  . +       . ++  .   .. . +. + . +++. +. .   ..   . ++  ..  ++ . ...  +.......               +. ++ ++   ++ ++  ",
"++.... +. ++ . +. +  +++. + +. +. .... +... +++ . + . + . ++ . +  . +       . + . + ++    . +   . + + + . ++ . +. +  . +. ++ . +. + ++ +. ++ . +.. ...++  . +   . +  . +. +.. + . + + + .. .. ++. +  . +  .. ++ .      +. +++ ... +     . +  . +. ++++  . ++++  . +.   +. +++. +  . +       . + . . ..  . +     . +++. +. +. . +. +  . +.     ++. .... +.     ++ +++  ..  . +   . +  . + . +. + . +.. +  ..  ++  .. ++   .. ++          . +  . +  . +      .. +   +++. +.. +. + +++  . +.  +++ +  .. +  .. ++ ..++   . +.     +                . +. +     +++   ",
"..     +. +  . +. +     . +  . +.      +  . +   . ... + . +  . +  . +       . + .   ++    . +   . + + + . +  . +. +  . +. +  . +. +  . +. +  +++ ++  ..   . +   . +  . +.. . ++ . + + +  ..  .. . + .. +  . ++  . +++. +. + ++ +. +  .... +  . +. +     . +     . +++. +. +  . +  . +   ... . + . +. .. . +     . +  . +. +..  +. +  . +. +++++ .   .. +. .. ++ ...+++ +  . +   . +  . + . +. + . + + +  . +. +   . +    . ++           . +  . +  . +     .. ++ ...  . +. ... .....  . +. ++ . +  . ++  . ++++ +..+++. ++++++++               .. .. ..    ...   ",
". ++++ +. +. . +. +  .... + .. +. ++++.+  . +   ++   ++ . +  . +  . +       . + . +. ++   . +   . + + + . +  . +. +  . +. .. . +. + .. +. +     ..+++ ..  . +.... + .. + . . +  . + + + .. ++ ... ...  + .. +   . +  . +. + .. +. +  . +. + .. +. +     . +     . + .. +. +  . +  . +   . + . + . +.. ... +     . +  . +. + .  +. +  . +. +     . ++ . +. +.. ... +  . +  . +   . +  . + ..  ++ . + + + .. +. ++  . +   .. +            . .... +  . +    .. ++  . +  . +.      +. +  . +. +  . + .. +   . +  . +. + .. +                  ... .      +   .. ..  ",
". .... +.  ... +. .... +. ...  +. .... +  . +   .. +++. . +  . +... +.. ... . + . +.. ++... +.. . + + + . +  . +. .... +.  ... +. ...  +. +     . .... +  . .. +. ...  + .. ++  . + + + . ++.. +++   . +.. ...... +  . +. ... ++. .... +. ... ++. ....... +     . ...  +. +  . +... ... . ... + . + .. +. ....... +  . +. + .. +. .... +. +     . ..+  +. + .. +. .... +  . +   . .... +  .  +  . + + + . ++.. +  . +   . ......        ++ .. ++... ... .. ...... .... +++++. ++. .... +. .... + . ++   . +... +. ... ++                 .. ..+. +. ++   .   +  ",
"++     +. +   ++++    ++++   + +++    ++  . +   . .   .+. +  . +.     + . + . + . + .. +.     + . +++ + . +  . +++    ++. +   ++++   . +. +     ++    ++  ++  ++++   + +  . +   ++ + ++ . +  . +..+++. +.      +. +  . +.    ++ ++    ++.    ++ .      +. +     ++   + +. +  . +.     + ++   ++ . +  . +.      +. +  . +. +  . +++    ++. +     ++    ++. +  . +++    ++  . +   ++    ++  .  +  ++ + ++ . +  . +  . +   .      +         ++  ++ .     + .      +++    ++   +. + ++    ++++    ++ . +    ++    ++++   ++                  .   + . +. +    ++ ++  ",
" ++++++++++++++  ++++++  +++++++ ++++++   +++   . .... ++++  ++++++++++ . +.. + +++  ++++++++++ +++ +++ +++  +++ ++++++ . +++++  ++++. ++++      ++++++    ++++  +++++++  +++    +++++  +++  +++. .... ++++++++++++  +++++++++   ++++++ ++++++  +++++++++++      ++++++++++  ++++++++++  +++++  +++  ++++++++++++++  ++++++  +++ ++++++ +++      ++++ ..+++  +++ ++++++   +++    ++++++   ++++   +++++  +++  +++  +++   ++++++++          ++++  +++++++ ++++++++ ++++++     +++  ++++++  ++++++  +++     ++++++  +++++          ........ ++ ++ ++++++     +++   ",
"                                                ++    ++                ++   ++                                         . +          . +                                                        ++    ++                                                                                                                                            ++ +                                                                                                                                                                        .      +  +++                   ",
"                                                 ++++++                  +++++                                          +++          +++                                                         ++++++                                                                                                                                              +++                                                                                                                                                                        ++++++++                        "};
